<?xml version="1.0" standalone="no"?>
<!DOCTYPE svg PUBLIC "-//W3C//DTD SVG 20010904//EN"
 "http://www.w3.org/TR/2001/REC-SVG-20010904/DTD/svg10.dtd">
<svg version="1.0" xmlns="http://www.w3.org/2000/svg"
 width="80.000000pt" height="98.000000pt" viewBox="0 0 80.000000 98.000000"
 preserveAspectRatio="xMidYMid meet">

<g transform="translate(0.000000,98.000000) scale(0.100000,-0.100000)"
fill="#000000" stroke="none">
<path d="M194 925 c-4 -16 0 -34 10 -50 9 -13 16 -37 16 -53 0 -16 9 -37 20
-47 11 -10 24 -32 28 -49 4 -16 13 -31 20 -34 20 -6 2 59 -25 91 -12 16 -23
41 -23 57 0 16 -4 32 -10 35 -5 3 -10 22 -10 41 0 40 -17 46 -26 9z"/>
<path d="M375 918 c-14 -62 -5 -198 13 -198 9 0 7 94 -3 110 -4 6 -2 32 5 56
9 31 10 48 3 55 -7 7 -13 0 -18 -23z"/>
<path d="M565 895 c-9 -25 -27 -53 -40 -61 -37 -24 -60 -104 -30 -104 10 0 15
11 15 35 0 23 6 37 19 44 25 14 85 131 67 131 -7 0 -21 -20 -31 -45z"/>
<path d="M293 900 c4 -16 2 -42 -4 -59 -12 -33 -3 -57 36 -99 32 -34 41 -11
10 26 -27 32 -31 53 -15 83 8 14 7 27 -5 49 -20 38 -29 38 -22 0z"/>
<path d="M455 893 c-4 -21 -16 -50 -27 -66 -17 -24 -19 -33 -9 -53 6 -14 11
-46 11 -72 0 -34 3 -43 10 -32 13 20 13 86 0 110 -8 14 -4 30 15 66 25 48 32
84 16 84 -5 0 -12 -17 -16 -37z"/>
<path d="M640 880 c-11 -22 -34 -52 -50 -66 -28 -25 -51 -97 -35 -112 10 -10
25 20 25 51 0 15 7 30 15 34 16 6 67 75 78 105 13 36 -13 27 -33 -12z"/>
<path d="M702 869 c-23 -24 -30 -38 -26 -55 4 -17 -3 -32 -28 -58 -31 -32 -35
-41 -36 -97 -2 -61 -2 -61 23 -55 20 5 27 2 37 -19 10 -22 8 -29 -13 -51 -17
-19 -31 -24 -51 -22 -30 5 -38 -6 -12 -16 50 -19 104 17 104 70 0 28 -6 38
-30 52 -24 14 -30 24 -30 52 0 37 23 73 53 84 15 5 17 12 12 37 -6 25 -2 36
21 60 19 20 25 32 18 39 -8 8 -21 1 -42 -21z"/>
<path d="M139 851 c-5 -28 -2 -38 19 -55 13 -12 31 -36 38 -53 16 -37 39 -46
28 -10 -13 44 -34 76 -53 82 -13 4 -21 17 -23 38 l-3 32 -6 -34z"/>
<path d="M195 648 c-4 -14 -22 -30 -46 -41 -32 -15 -39 -24 -39 -48 0 -35 38
-64 75 -57 22 5 25 1 34 -41 8 -39 95 -303 115 -352 6 -14 -1 -18 -36 -22
-204 -25 -258 -36 -283 -58 -12 -12 1 -11 130 6 143 19 386 19 490 -1 44 -8
95 -17 113 -21 28 -5 32 -3 32 15 0 25 -45 37 -207 54 -82 9 -113 16 -113 25
0 8 11 35 24 61 13 26 28 63 34 82 6 19 21 64 35 100 30 82 39 127 27 135 -6
4 -12 0 -14 -7 -10 -37 -73 -205 -109 -291 -64 -152 -70 -146 -193 213 -39
114 -45 125 -66 123 -45 -4 -68 6 -68 30 0 27 34 50 61 42 17 -6 19 -1 19 34
0 45 -7 53 -15 19z"/>
<path d="M460 584 c0 -32 4 -44 13 -42 21 8 18 88 -4 88 -5 0 -9 -21 -9 -46z"/>
<path d="M342 584 c2 -20 9 -39 16 -42 10 -3 12 6 10 34 -2 20 -9 39 -16 42
-10 3 -12 -6 -10 -34z"/>
<path d="M394 479 c-10 -17 13 -36 27 -22 12 12 4 33 -11 33 -5 0 -12 -5 -16
-11z"/>
<path d="M405 373 c-29 -7 -41 -21 -23 -28 18 -7 68 11 68 25 0 10 -11 11 -45
3z"/>
</g>
</svg>
